<mxfile host="Electron" modified="2024-03-28T12:42:22.884Z" agent="Mozilla/5.0 (Windows NT 10.0; Win64; x64) AppleWebKit/537.36 (KHTML, like Gecko) draw.io/24.1.0 Chrome/120.0.6099.109 Electron/28.1.0 Safari/537.36" etag="Jhr0umBA6pdZlxgO0Bn_" version="24.1.0" type="device">
  <diagram name="ページ1" id="LE8fIzdrHe0wcv1LTvfw">
    <mxGraphModel dx="4330" dy="2590" grid="1" gridSize="10" guides="1" tooltips="1" connect="1" arrows="1" fold="1" page="1" pageScale="1" pageWidth="1600" pageHeight="1200" math="0" shadow="0">
      <root>
        <mxCell id="0" />
        <mxCell id="cFaB45KztUIKXS-_cTrr-4" value="背景" style="locked=1;" parent="0" visible="0" />
        <mxCell id="cFaB45KztUIKXS-_cTrr-5" value="" style="rounded=0;whiteSpace=wrap;html=1;strokeWidth=3;" parent="cFaB45KztUIKXS-_cTrr-4" vertex="1">
          <mxGeometry x="1" y="1" width="1595" height="1180" as="geometry" />
        </mxCell>
        <mxCell id="cFaB45KztUIKXS-_cTrr-6" value="" style="rounded=0;whiteSpace=wrap;html=1;fillColor=#B3B3B3;fontColor=#333333;strokeColor=#666666;" parent="cFaB45KztUIKXS-_cTrr-4" vertex="1">
          <mxGeometry width="1595" height="60" as="geometry" />
        </mxCell>
        <mxCell id="cFaB45KztUIKXS-_cTrr-7" value="&lt;font style=&quot;font-size: 48px;&quot;&gt;×&lt;/font&gt;" style="rounded=0;whiteSpace=wrap;html=1;" parent="cFaB45KztUIKXS-_cTrr-4" vertex="1">
          <mxGeometry x="1550" y="10" width="40" height="40" as="geometry" />
        </mxCell>
        <mxCell id="cFaB45KztUIKXS-_cTrr-8" value="" style="rounded=0;whiteSpace=wrap;html=1;" parent="cFaB45KztUIKXS-_cTrr-4" vertex="1">
          <mxGeometry x="830" y="670" width="120" height="60" as="geometry" />
        </mxCell>
        <mxCell id="cFaB45KztUIKXS-_cTrr-9" value="ウインドウ" style="locked=1;" parent="0" />
        <mxCell id="cFaB45KztUIKXS-_cTrr-10" value="" style="rounded=0;whiteSpace=wrap;html=1;strokeWidth=3;" parent="cFaB45KztUIKXS-_cTrr-9" vertex="1">
          <mxGeometry x="1" y="1" width="3169" height="1789" as="geometry" />
        </mxCell>
        <mxCell id="cFaB45KztUIKXS-_cTrr-11" value="" style="rounded=0;whiteSpace=wrap;html=1;fillColor=#B3B3B3;fontColor=#333333;strokeColor=#666666;" parent="cFaB45KztUIKXS-_cTrr-9" vertex="1">
          <mxGeometry width="1595" height="60" as="geometry" />
        </mxCell>
        <mxCell id="cFaB45KztUIKXS-_cTrr-12" value="&lt;font style=&quot;font-size: 48px;&quot;&gt;×&lt;/font&gt;" style="rounded=0;whiteSpace=wrap;html=1;" parent="cFaB45KztUIKXS-_cTrr-9" vertex="1">
          <mxGeometry x="1550" y="10" width="40" height="40" as="geometry" />
        </mxCell>
        <mxCell id="FPtvT3ox4dakqYe4pcGO-126" value="" style="line;strokeWidth=2;direction=south;html=1;dashed=1;dashPattern=12 12;" parent="cFaB45KztUIKXS-_cTrr-9" vertex="1">
          <mxGeometry x="1543" y="10" width="11.76" height="1540" as="geometry" />
        </mxCell>
        <mxCell id="cFaB45KztUIKXS-_cTrr-14" value="名称未設定レイヤ" style="" parent="0" />
        <mxCell id="kxWkAaZomFuKM2yIZcbC-108" value="&lt;span style=&quot;font-size: 30px;&quot;&gt;検索語(自由記述)&lt;/span&gt;" style="rounded=0;whiteSpace=wrap;html=1;align=right;dashed=1;dashPattern=8 8;verticalAlign=bottom;" parent="cFaB45KztUIKXS-_cTrr-14" vertex="1">
          <mxGeometry x="27" y="596" width="310" height="46" as="geometry" />
        </mxCell>
        <mxCell id="kxWkAaZomFuKM2yIZcbC-109" value="&lt;font style=&quot;font-size: 30px;&quot;&gt;12345&lt;/font&gt;&lt;span style=&quot;font-size: 30px;&quot;&gt;&lt;br&gt;&lt;/span&gt;" style="rounded=0;whiteSpace=wrap;html=1;align=left;fillColor=#CCCCCC;" parent="cFaB45KztUIKXS-_cTrr-14" vertex="1">
          <mxGeometry x="360" y="87" width="170" height="48" as="geometry" />
        </mxCell>
        <mxCell id="kxWkAaZomFuKM2yIZcbC-110" value="&lt;span style=&quot;font-size: 30px;&quot;&gt;検索結果&lt;/span&gt;" style="rounded=0;whiteSpace=wrap;html=1;align=left;dashed=1;dashPattern=8 8;verticalAlign=bottom;" parent="cFaB45KztUIKXS-_cTrr-14" vertex="1">
          <mxGeometry x="130" y="696" width="310" height="46" as="geometry" />
        </mxCell>
        <mxCell id="5l2hKBXCzOEWmYN1dR5e-1" value="&lt;span style=&quot;font-size: 30px;&quot;&gt;選択&lt;/span&gt;" style="rounded=1;whiteSpace=wrap;html=1;" parent="cFaB45KztUIKXS-_cTrr-14" vertex="1">
          <mxGeometry x="1325" y="1429" width="210" height="60" as="geometry" />
        </mxCell>
        <mxCell id="5l2hKBXCzOEWmYN1dR5e-2" value="&lt;span style=&quot;font-size: 30px;&quot;&gt;閉じる&lt;/span&gt;" style="rounded=1;whiteSpace=wrap;html=1;" parent="cFaB45KztUIKXS-_cTrr-14" vertex="1">
          <mxGeometry x="1075" y="1429" width="210" height="60" as="geometry" />
        </mxCell>
        <mxCell id="5l2hKBXCzOEWmYN1dR5e-3" value="&lt;span style=&quot;font-size: 30px;&quot;&gt;検索して指定&lt;/span&gt;" style="rounded=1;whiteSpace=wrap;html=1;" parent="cFaB45KztUIKXS-_cTrr-14" vertex="1">
          <mxGeometry x="1191" y="86" width="210" height="51" as="geometry" />
        </mxCell>
        <mxCell id="cdmeLEnnqN9o7mxTk7t2-6" value="&lt;span style=&quot;font-size: 30px;&quot;&gt;検索条件&lt;/span&gt;" style="rounded=0;whiteSpace=wrap;html=1;align=left;dashed=1;dashPattern=8 8;verticalAlign=bottom;" parent="cFaB45KztUIKXS-_cTrr-14" vertex="1">
          <mxGeometry x="30" y="176" width="310" height="46" as="geometry" />
        </mxCell>
        <mxCell id="cdmeLEnnqN9o7mxTk7t2-7" value="&lt;font style=&quot;font-size: 30px;&quot;&gt;▼7.寄付&lt;/font&gt;&lt;span style=&quot;font-size: 30px;&quot;&gt;&lt;br&gt;&lt;/span&gt;" style="rounded=0;whiteSpace=wrap;html=1;align=left;" parent="cFaB45KztUIKXS-_cTrr-14" vertex="1">
          <mxGeometry x="360" y="457" width="560" height="48" as="geometry" />
        </mxCell>
        <mxCell id="cdmeLEnnqN9o7mxTk7t2-8" value="&lt;font style=&quot;font-size: 30px;&quot;&gt;▼2.法人&lt;/font&gt;&lt;span style=&quot;font-size: 30px;&quot;&gt;&lt;br&gt;&lt;/span&gt;" style="rounded=0;whiteSpace=wrap;html=1;align=left;" parent="cFaB45KztUIKXS-_cTrr-14" vertex="1">
          <mxGeometry x="1142" y="910" width="248" height="55" as="geometry" />
        </mxCell>
        <mxCell id="cdmeLEnnqN9o7mxTk7t2-9" value="&lt;span style=&quot;font-size: 30px;&quot;&gt;様式区分&lt;/span&gt;" style="rounded=0;whiteSpace=wrap;html=1;align=right;dashed=1;dashPattern=8 8;verticalAlign=bottom;" parent="cFaB45KztUIKXS-_cTrr-14" vertex="1">
          <mxGeometry x="30" y="457" width="310" height="46" as="geometry" />
        </mxCell>
        <mxCell id="cdmeLEnnqN9o7mxTk7t2-12" value="&lt;span style=&quot;font-size: 30px;&quot;&gt;継続事業&lt;/span&gt;" style="rounded=0;whiteSpace=wrap;html=1;align=right;dashed=1;dashPattern=8 8;verticalAlign=bottom;" parent="cFaB45KztUIKXS-_cTrr-14" vertex="1">
          <mxGeometry x="30" y="526" width="310" height="46" as="geometry" />
        </mxCell>
        <mxCell id="cdmeLEnnqN9o7mxTk7t2-22" value="&lt;span style=&quot;font-size: 30px;&quot;&gt;政治資金収支報告書&lt;/span&gt;" style="rounded=0;whiteSpace=wrap;html=1;align=right;dashed=1;dashPattern=8 8;verticalAlign=bottom;" parent="cFaB45KztUIKXS-_cTrr-14" vertex="1">
          <mxGeometry x="29" y="89" width="310" height="46" as="geometry" />
        </mxCell>
        <mxCell id="cdmeLEnnqN9o7mxTk7t2-23" value="&lt;font style=&quot;font-size: 30px;&quot;&gt;ピクニック&lt;/font&gt;&lt;span style=&quot;font-size: 30px;&quot;&gt;&lt;br&gt;&lt;/span&gt;" style="rounded=0;whiteSpace=wrap;html=1;align=left;" parent="cFaB45KztUIKXS-_cTrr-14" vertex="1">
          <mxGeometry x="360" y="597" width="910" height="48" as="geometry" />
        </mxCell>
        <mxCell id="cdmeLEnnqN9o7mxTk7t2-25" value="&lt;span style=&quot;font-size: 30px;&quot;&gt;検索&lt;/span&gt;" style="rounded=1;whiteSpace=wrap;html=1;" parent="cFaB45KztUIKXS-_cTrr-14" vertex="1">
          <mxGeometry x="1330" y="1070" width="210" height="51" as="geometry" />
        </mxCell>
        <mxCell id="cdmeLEnnqN9o7mxTk7t2-26" value="&lt;span style=&quot;font-size: 30px;&quot;&gt;最初&lt;/span&gt;" style="rounded=1;whiteSpace=wrap;html=1;" parent="cFaB45KztUIKXS-_cTrr-14" vertex="1">
          <mxGeometry x="372" y="1324" width="110" height="51" as="geometry" />
        </mxCell>
        <mxCell id="cdmeLEnnqN9o7mxTk7t2-27" value="&lt;span style=&quot;font-size: 30px;&quot;&gt;最後&lt;/span&gt;" style="rounded=1;whiteSpace=wrap;html=1;" parent="cFaB45KztUIKXS-_cTrr-14" vertex="1">
          <mxGeometry x="1402" y="1324" width="110" height="51" as="geometry" />
        </mxCell>
        <mxCell id="cdmeLEnnqN9o7mxTk7t2-28" value="&lt;span style=&quot;font-size: 30px;&quot;&gt;1&lt;/span&gt;" style="rounded=1;whiteSpace=wrap;html=1;" parent="cFaB45KztUIKXS-_cTrr-14" vertex="1">
          <mxGeometry x="630" y="1324" width="110" height="51" as="geometry" />
        </mxCell>
        <mxCell id="cdmeLEnnqN9o7mxTk7t2-29" value="&lt;span style=&quot;font-size: 30px;&quot;&gt;2&lt;/span&gt;" style="rounded=1;whiteSpace=wrap;html=1;" parent="cFaB45KztUIKXS-_cTrr-14" vertex="1">
          <mxGeometry x="758" y="1324" width="110" height="51" as="geometry" />
        </mxCell>
        <mxCell id="cdmeLEnnqN9o7mxTk7t2-30" value="&lt;span style=&quot;font-size: 30px;&quot;&gt;3&lt;/span&gt;" style="rounded=1;whiteSpace=wrap;html=1;" parent="cFaB45KztUIKXS-_cTrr-14" vertex="1">
          <mxGeometry x="887" y="1325" width="110" height="51" as="geometry" />
        </mxCell>
        <mxCell id="cdmeLEnnqN9o7mxTk7t2-31" value="&lt;span style=&quot;font-size: 30px;&quot;&gt;4&lt;/span&gt;" style="rounded=1;whiteSpace=wrap;html=1;" parent="cFaB45KztUIKXS-_cTrr-14" vertex="1">
          <mxGeometry x="1016" y="1325" width="110" height="51" as="geometry" />
        </mxCell>
        <mxCell id="cdmeLEnnqN9o7mxTk7t2-32" value="&lt;span style=&quot;font-size: 30px;&quot;&gt;5&lt;/span&gt;" style="rounded=1;whiteSpace=wrap;html=1;" parent="cFaB45KztUIKXS-_cTrr-14" vertex="1">
          <mxGeometry x="1145" y="1325" width="110" height="51" as="geometry" />
        </mxCell>
        <mxCell id="cdmeLEnnqN9o7mxTk7t2-35" value="&lt;span style=&quot;font-size: 30px;&quot;&gt;&amp;gt;&amp;gt;&lt;/span&gt;" style="rounded=1;whiteSpace=wrap;html=1;" parent="cFaB45KztUIKXS-_cTrr-14" vertex="1">
          <mxGeometry x="1273" y="1325" width="110" height="51" as="geometry" />
        </mxCell>
        <mxCell id="cdmeLEnnqN9o7mxTk7t2-36" value="&lt;span style=&quot;font-size: 30px;&quot;&gt;&amp;lt;&amp;lt;&lt;/span&gt;" style="rounded=1;whiteSpace=wrap;html=1;" parent="cFaB45KztUIKXS-_cTrr-14" vertex="1">
          <mxGeometry x="501" y="1325" width="110" height="51" as="geometry" />
        </mxCell>
        <mxCell id="cdmeLEnnqN9o7mxTk7t2-37" value="&lt;div style=&quot;&quot;&gt;&lt;font style=&quot;font-size: 30px;&quot;&gt;スクロール&lt;/font&gt;&lt;/div&gt;" style="rounded=0;whiteSpace=wrap;html=1;align=left;verticalAlign=top;fillColor=#FFFFCC;" parent="cFaB45KztUIKXS-_cTrr-14" vertex="1">
          <mxGeometry x="32" y="1258" width="1448" height="48" as="geometry" />
        </mxCell>
        <mxCell id="cdmeLEnnqN9o7mxTk7t2-38" value="&lt;div style=&quot;&quot;&gt;&lt;br&gt;&lt;/div&gt;" style="rounded=0;whiteSpace=wrap;html=1;align=left;verticalAlign=top;fillColor=#FFFF66;" parent="cFaB45KztUIKXS-_cTrr-14" vertex="1">
          <mxGeometry x="122" y="1267" width="290" height="29" as="geometry" />
        </mxCell>
        <mxCell id="FPtvT3ox4dakqYe4pcGO-0" value="&lt;span style=&quot;font-size: 30px;&quot;&gt;ランダム政治団体&lt;/span&gt;" style="rounded=0;whiteSpace=wrap;html=1;align=left;fillColor=#CCCCCC;" parent="cFaB45KztUIKXS-_cTrr-14" vertex="1">
          <mxGeometry x="560" y="87" width="570" height="48" as="geometry" />
        </mxCell>
        <mxCell id="FPtvT3ox4dakqYe4pcGO-1" value="&lt;font style=&quot;font-size: 84px;&quot;&gt;○&lt;/font&gt;" style="text;html=1;strokeColor=none;fillColor=none;align=center;verticalAlign=middle;whiteSpace=wrap;rounded=0;fontSize=60;" parent="cFaB45KztUIKXS-_cTrr-14" vertex="1">
          <mxGeometry x="354" y="387" width="60" height="30" as="geometry" />
        </mxCell>
        <mxCell id="FPtvT3ox4dakqYe4pcGO-2" value="&lt;font style=&quot;font-size: 48px;&quot;&gt;●&lt;/font&gt;" style="text;html=1;strokeColor=none;fillColor=none;align=center;verticalAlign=middle;whiteSpace=wrap;rounded=0;fontSize=48;" parent="cFaB45KztUIKXS-_cTrr-14" vertex="1">
          <mxGeometry x="354" y="389" width="60" height="30" as="geometry" />
        </mxCell>
        <mxCell id="FPtvT3ox4dakqYe4pcGO-3" value="&lt;font style=&quot;font-size: 30px;&quot;&gt;報告対象&lt;/font&gt;" style="text;html=1;strokeColor=none;fillColor=none;align=left;verticalAlign=middle;whiteSpace=wrap;rounded=0;" parent="cFaB45KztUIKXS-_cTrr-14" vertex="1">
          <mxGeometry x="409" y="376" width="275" height="60" as="geometry" />
        </mxCell>
        <mxCell id="FPtvT3ox4dakqYe4pcGO-4" value="&lt;font style=&quot;font-size: 84px;&quot;&gt;○&lt;/font&gt;" style="text;html=1;strokeColor=none;fillColor=none;align=center;verticalAlign=middle;whiteSpace=wrap;rounded=0;fontSize=60;" parent="cFaB45KztUIKXS-_cTrr-14" vertex="1">
          <mxGeometry x="534" y="387" width="60" height="30" as="geometry" />
        </mxCell>
        <mxCell id="FPtvT3ox4dakqYe4pcGO-5" value="&lt;font style=&quot;font-size: 30px;&quot;&gt;生活費(報告対象外)&lt;/font&gt;" style="text;html=1;strokeColor=none;fillColor=none;align=left;verticalAlign=middle;whiteSpace=wrap;rounded=0;" parent="cFaB45KztUIKXS-_cTrr-14" vertex="1">
          <mxGeometry x="586" y="377" width="275" height="60" as="geometry" />
        </mxCell>
        <mxCell id="FPtvT3ox4dakqYe4pcGO-6" value="&lt;font style=&quot;font-size: 84px;&quot;&gt;○&lt;/font&gt;" style="text;html=1;strokeColor=none;fillColor=none;align=center;verticalAlign=middle;whiteSpace=wrap;rounded=0;fontSize=60;" parent="cFaB45KztUIKXS-_cTrr-14" vertex="1">
          <mxGeometry x="1037" y="847" width="60" height="30" as="geometry" />
        </mxCell>
        <mxCell id="FPtvT3ox4dakqYe4pcGO-7" value="&lt;font style=&quot;font-size: 30px;&quot;&gt;政治活動報告対象外(廃止予定)&lt;/font&gt;" style="text;html=1;strokeColor=none;fillColor=none;align=left;verticalAlign=middle;whiteSpace=wrap;rounded=0;" parent="cFaB45KztUIKXS-_cTrr-14" vertex="1">
          <mxGeometry x="1093" y="837" width="421" height="60" as="geometry" />
        </mxCell>
        <mxCell id="FPtvT3ox4dakqYe4pcGO-10" value="&lt;span style=&quot;font-size: 30px;&quot;&gt;収支報告区分&lt;/span&gt;" style="rounded=0;whiteSpace=wrap;html=1;align=right;dashed=1;dashPattern=8 8;verticalAlign=bottom;" parent="cFaB45KztUIKXS-_cTrr-14" vertex="1">
          <mxGeometry x="30" y="387" width="310" height="46" as="geometry" />
        </mxCell>
        <mxCell id="FPtvT3ox4dakqYe4pcGO-11" value="&lt;font style=&quot;font-size: 30px;&quot;&gt;▼7.機関誌発行&lt;/font&gt;&lt;span style=&quot;font-size: 30px;&quot;&gt;&lt;br&gt;&lt;/span&gt;" style="rounded=0;whiteSpace=wrap;html=1;align=left;" parent="cFaB45KztUIKXS-_cTrr-14" vertex="1">
          <mxGeometry x="360" y="527" width="560" height="48" as="geometry" />
        </mxCell>
        <mxCell id="FPtvT3ox4dakqYe4pcGO-12" value="&lt;span style=&quot;font-size: 30px;&quot;&gt;発生日&lt;/span&gt;" style="rounded=0;whiteSpace=wrap;html=1;align=right;dashed=1;dashPattern=8 8;verticalAlign=bottom;" parent="cFaB45KztUIKXS-_cTrr-14" vertex="1">
          <mxGeometry x="30" y="247" width="310" height="46" as="geometry" />
        </mxCell>
        <mxCell id="FPtvT3ox4dakqYe4pcGO-13" value="&lt;span style=&quot;font-size: 30px;&quot;&gt;金額&lt;/span&gt;" style="rounded=0;whiteSpace=wrap;html=1;align=right;dashed=1;dashPattern=8 8;verticalAlign=bottom;" parent="cFaB45KztUIKXS-_cTrr-14" vertex="1">
          <mxGeometry x="30" y="317" width="310" height="46" as="geometry" />
        </mxCell>
        <mxCell id="FPtvT3ox4dakqYe4pcGO-14" value="&lt;span style=&quot;font-size: 30px;&quot;&gt;10,000&lt;/span&gt;" style="rounded=0;whiteSpace=wrap;html=1;align=right;" parent="cFaB45KztUIKXS-_cTrr-14" vertex="1">
          <mxGeometry x="370" y="317" width="290" height="48" as="geometry" />
        </mxCell>
        <mxCell id="FPtvT3ox4dakqYe4pcGO-15" value="&lt;span style=&quot;font-size: 30px;&quot;&gt;から&lt;/span&gt;" style="rounded=0;whiteSpace=wrap;html=1;align=left;dashed=1;dashPattern=8 8;verticalAlign=bottom;" parent="cFaB45KztUIKXS-_cTrr-14" vertex="1">
          <mxGeometry x="660" y="317" width="80" height="46" as="geometry" />
        </mxCell>
        <mxCell id="FPtvT3ox4dakqYe4pcGO-16" value="&lt;span style=&quot;font-size: 30px;&quot;&gt;まで&lt;/span&gt;" style="rounded=0;whiteSpace=wrap;html=1;align=left;dashed=1;dashPattern=8 8;verticalAlign=bottom;" parent="cFaB45KztUIKXS-_cTrr-14" vertex="1">
          <mxGeometry x="1030" y="317" width="80" height="46" as="geometry" />
        </mxCell>
        <mxCell id="FPtvT3ox4dakqYe4pcGO-17" value="&lt;span style=&quot;font-size: 30px;&quot;&gt;40,000&lt;/span&gt;" style="rounded=0;whiteSpace=wrap;html=1;align=right;" parent="cFaB45KztUIKXS-_cTrr-14" vertex="1">
          <mxGeometry x="740" y="318" width="290" height="48" as="geometry" />
        </mxCell>
        <mxCell id="FPtvT3ox4dakqYe4pcGO-18" value="&lt;span style=&quot;font-size: 30px;&quot;&gt;2022-01-01&lt;/span&gt;" style="rounded=0;whiteSpace=wrap;html=1;align=right;" parent="cFaB45KztUIKXS-_cTrr-14" vertex="1">
          <mxGeometry x="370" y="247" width="290" height="48" as="geometry" />
        </mxCell>
        <mxCell id="FPtvT3ox4dakqYe4pcGO-19" value="&lt;span style=&quot;font-size: 30px;&quot;&gt;から&lt;/span&gt;" style="rounded=0;whiteSpace=wrap;html=1;align=left;dashed=1;dashPattern=8 8;verticalAlign=bottom;" parent="cFaB45KztUIKXS-_cTrr-14" vertex="1">
          <mxGeometry x="660" y="247" width="80" height="46" as="geometry" />
        </mxCell>
        <mxCell id="FPtvT3ox4dakqYe4pcGO-20" value="&lt;span style=&quot;font-size: 30px;&quot;&gt;まで&lt;/span&gt;" style="rounded=0;whiteSpace=wrap;html=1;align=left;dashed=1;dashPattern=8 8;verticalAlign=bottom;" parent="cFaB45KztUIKXS-_cTrr-14" vertex="1">
          <mxGeometry x="1030" y="247" width="80" height="46" as="geometry" />
        </mxCell>
        <mxCell id="FPtvT3ox4dakqYe4pcGO-21" value="&lt;span style=&quot;font-size: 30px;&quot;&gt;2022-12-01&lt;/span&gt;" style="rounded=0;whiteSpace=wrap;html=1;align=right;" parent="cFaB45KztUIKXS-_cTrr-14" vertex="1">
          <mxGeometry x="740" y="248" width="290" height="48" as="geometry" />
        </mxCell>
        <mxCell id="FPtvT3ox4dakqYe4pcGO-23" value="" style="childLayout=tableLayout;recursiveResize=0;shadow=0;fillColor=default;align=left;" parent="cFaB45KztUIKXS-_cTrr-14" vertex="1">
          <mxGeometry x="34" y="771" width="2619" height="484.0000000000002" as="geometry" />
        </mxCell>
        <mxCell id="FPtvT3ox4dakqYe4pcGO-24" value="" style="shape=tableRow;horizontal=0;startSize=0;swimlaneHead=0;swimlaneBody=0;top=0;left=0;bottom=0;right=0;dropTarget=0;collapsible=0;recursiveResize=0;expand=0;fontStyle=0;fillColor=none;strokeColor=inherit;" parent="FPtvT3ox4dakqYe4pcGO-23" vertex="1">
          <mxGeometry width="2619" height="55" as="geometry" />
        </mxCell>
        <mxCell id="rfn0SntSckL0OTr6p3Q9-0" style="connectable=0;recursiveResize=0;strokeColor=inherit;fillColor=none;align=center;whiteSpace=wrap;html=1;" vertex="1" parent="FPtvT3ox4dakqYe4pcGO-24">
          <mxGeometry width="106" height="55" as="geometry">
            <mxRectangle width="106" height="55" as="alternateBounds" />
          </mxGeometry>
        </mxCell>
        <mxCell id="FPtvT3ox4dakqYe4pcGO-25" value="&lt;span style=&quot;font-size: 30px;&quot;&gt;参照摘要&lt;/span&gt;" style="connectable=0;recursiveResize=0;strokeColor=inherit;fillColor=none;align=center;whiteSpace=wrap;html=1;" parent="FPtvT3ox4dakqYe4pcGO-24" vertex="1">
          <mxGeometry x="106" width="332" height="55" as="geometry">
            <mxRectangle width="332" height="55" as="alternateBounds" />
          </mxGeometry>
        </mxCell>
        <mxCell id="FPtvT3ox4dakqYe4pcGO-26" value="&lt;span style=&quot;font-size: 30px;&quot;&gt;発生日&lt;/span&gt;" style="connectable=0;recursiveResize=0;strokeColor=inherit;fillColor=none;align=center;whiteSpace=wrap;html=1;" parent="FPtvT3ox4dakqYe4pcGO-24" vertex="1">
          <mxGeometry x="438" width="251" height="55" as="geometry">
            <mxRectangle width="251" height="55" as="alternateBounds" />
          </mxGeometry>
        </mxCell>
        <mxCell id="FPtvT3ox4dakqYe4pcGO-27" value="&lt;font style=&quot;font-size: 30px;&quot;&gt;金額&lt;/font&gt;" style="connectable=0;recursiveResize=0;strokeColor=inherit;fillColor=none;align=center;whiteSpace=wrap;html=1;" parent="FPtvT3ox4dakqYe4pcGO-24" vertex="1">
          <mxGeometry x="689" width="221" height="55" as="geometry">
            <mxRectangle width="221" height="55" as="alternateBounds" />
          </mxGeometry>
        </mxCell>
        <mxCell id="FPtvT3ox4dakqYe4pcGO-28" value="&lt;span style=&quot;font-size: 30px;&quot;&gt;報告対象&lt;/span&gt;" style="connectable=0;recursiveResize=0;strokeColor=inherit;fillColor=none;align=center;whiteSpace=wrap;html=1;" parent="FPtvT3ox4dakqYe4pcGO-24" vertex="1">
          <mxGeometry x="910" width="519" height="55" as="geometry">
            <mxRectangle width="519" height="55" as="alternateBounds" />
          </mxGeometry>
        </mxCell>
        <mxCell id="FPtvT3ox4dakqYe4pcGO-29" value="&lt;font style=&quot;font-size: 30px;&quot;&gt;*仕訳項目&lt;/font&gt;" style="connectable=0;recursiveResize=0;strokeColor=inherit;fillColor=none;align=center;whiteSpace=wrap;html=1;" parent="FPtvT3ox4dakqYe4pcGO-24" vertex="1">
          <mxGeometry x="1429" width="380" height="55" as="geometry">
            <mxRectangle width="380" height="55" as="alternateBounds" />
          </mxGeometry>
        </mxCell>
        <mxCell id="FPtvT3ox4dakqYe4pcGO-30" value="&lt;span style=&quot;font-size: 30px;&quot;&gt;*項目&lt;/span&gt;" style="connectable=0;recursiveResize=0;strokeColor=inherit;fillColor=none;align=center;whiteSpace=wrap;html=1;" parent="FPtvT3ox4dakqYe4pcGO-24" vertex="1">
          <mxGeometry x="1809" width="370" height="55" as="geometry">
            <mxRectangle width="370" height="55" as="alternateBounds" />
          </mxGeometry>
        </mxCell>
        <mxCell id="FPtvT3ox4dakqYe4pcGO-36" value="&lt;font style=&quot;font-size: 30px;&quot;&gt;*備考&lt;/font&gt;" style="connectable=0;recursiveResize=0;strokeColor=inherit;fillColor=none;align=center;whiteSpace=wrap;html=1;" parent="FPtvT3ox4dakqYe4pcGO-24" vertex="1">
          <mxGeometry x="2179" width="440" height="55" as="geometry">
            <mxRectangle width="440" height="55" as="alternateBounds" />
          </mxGeometry>
        </mxCell>
        <mxCell id="FPtvT3ox4dakqYe4pcGO-41" style="shape=tableRow;horizontal=0;startSize=0;swimlaneHead=0;swimlaneBody=0;top=0;left=0;bottom=0;right=0;dropTarget=0;collapsible=0;recursiveResize=0;expand=0;fontStyle=0;fillColor=none;strokeColor=inherit;" parent="FPtvT3ox4dakqYe4pcGO-23" vertex="1">
          <mxGeometry y="55" width="2619" height="204" as="geometry" />
        </mxCell>
        <mxCell id="rfn0SntSckL0OTr6p3Q9-1" style="connectable=0;recursiveResize=0;strokeColor=inherit;fillColor=#FFFFFF;align=left;whiteSpace=wrap;html=1;" vertex="1" parent="FPtvT3ox4dakqYe4pcGO-41">
          <mxGeometry width="106" height="204" as="geometry">
            <mxRectangle width="106" height="204" as="alternateBounds" />
          </mxGeometry>
        </mxCell>
        <mxCell id="FPtvT3ox4dakqYe4pcGO-42" value="&lt;span style=&quot;font-size: 30px;&quot;&gt;ﾌﾘｶｴ ｽｲﾄﾞｳ&lt;/span&gt;" style="connectable=0;recursiveResize=0;strokeColor=inherit;fillColor=#FFFFFF;align=left;whiteSpace=wrap;html=1;" parent="FPtvT3ox4dakqYe4pcGO-41" vertex="1">
          <mxGeometry x="106" width="332" height="204" as="geometry">
            <mxRectangle width="332" height="204" as="alternateBounds" />
          </mxGeometry>
        </mxCell>
        <mxCell id="FPtvT3ox4dakqYe4pcGO-43" value="&lt;font style=&quot;font-size: 30px;&quot;&gt;2022.09.01&lt;/font&gt;" style="connectable=0;recursiveResize=0;strokeColor=inherit;fillColor=#FFFFFF;align=right;whiteSpace=wrap;html=1;" parent="FPtvT3ox4dakqYe4pcGO-41" vertex="1">
          <mxGeometry x="438" width="251" height="204" as="geometry">
            <mxRectangle width="251" height="204" as="alternateBounds" />
          </mxGeometry>
        </mxCell>
        <mxCell id="FPtvT3ox4dakqYe4pcGO-44" value="&lt;font style=&quot;font-size: 30px;&quot;&gt;234,567&lt;/font&gt;" style="connectable=0;recursiveResize=0;align=right;whiteSpace=wrap;html=1;fillColor=#FFFFFF;" parent="FPtvT3ox4dakqYe4pcGO-41" vertex="1">
          <mxGeometry x="689" width="221" height="204" as="geometry">
            <mxRectangle width="221" height="204" as="alternateBounds" />
          </mxGeometry>
        </mxCell>
        <mxCell id="FPtvT3ox4dakqYe4pcGO-45" value="" style="connectable=0;recursiveResize=0;strokeColor=inherit;fillColor=none;align=center;whiteSpace=wrap;html=1;" parent="FPtvT3ox4dakqYe4pcGO-41" vertex="1">
          <mxGeometry x="910" width="519" height="204" as="geometry">
            <mxRectangle width="519" height="204" as="alternateBounds" />
          </mxGeometry>
        </mxCell>
        <mxCell id="FPtvT3ox4dakqYe4pcGO-46" style="connectable=0;recursiveResize=0;strokeColor=inherit;fillColor=none;align=center;whiteSpace=wrap;html=1;" parent="FPtvT3ox4dakqYe4pcGO-41" vertex="1">
          <mxGeometry x="1429" width="380" height="204" as="geometry">
            <mxRectangle width="380" height="204" as="alternateBounds" />
          </mxGeometry>
        </mxCell>
        <mxCell id="FPtvT3ox4dakqYe4pcGO-47" style="connectable=0;recursiveResize=0;strokeColor=inherit;fillColor=none;align=center;whiteSpace=wrap;html=1;" parent="FPtvT3ox4dakqYe4pcGO-41" vertex="1">
          <mxGeometry x="1809" width="370" height="204" as="geometry">
            <mxRectangle width="370" height="204" as="alternateBounds" />
          </mxGeometry>
        </mxCell>
        <mxCell id="FPtvT3ox4dakqYe4pcGO-53" value="" style="connectable=0;recursiveResize=0;strokeColor=inherit;fillColor=none;align=center;whiteSpace=wrap;html=1;" parent="FPtvT3ox4dakqYe4pcGO-41" vertex="1">
          <mxGeometry x="2179" width="440" height="204" as="geometry">
            <mxRectangle width="440" height="204" as="alternateBounds" />
          </mxGeometry>
        </mxCell>
        <mxCell id="FPtvT3ox4dakqYe4pcGO-58" style="shape=tableRow;horizontal=0;startSize=0;swimlaneHead=0;swimlaneBody=0;top=0;left=0;bottom=0;right=0;dropTarget=0;collapsible=0;recursiveResize=0;expand=0;fontStyle=0;fillColor=none;strokeColor=inherit;" parent="FPtvT3ox4dakqYe4pcGO-23" vertex="1">
          <mxGeometry y="259" width="2619" height="225" as="geometry" />
        </mxCell>
        <mxCell id="rfn0SntSckL0OTr6p3Q9-2" style="connectable=0;recursiveResize=0;strokeColor=inherit;fillColor=#FFFFFF;align=left;whiteSpace=wrap;html=1;" vertex="1" parent="FPtvT3ox4dakqYe4pcGO-58">
          <mxGeometry width="106" height="225" as="geometry">
            <mxRectangle width="106" height="225" as="alternateBounds" />
          </mxGeometry>
        </mxCell>
        <mxCell id="FPtvT3ox4dakqYe4pcGO-59" value="&lt;font style=&quot;font-size: 30px;&quot;&gt;ﾌﾘｶｴﾃﾞﾝﾘｮｸ&lt;/font&gt;" style="connectable=0;recursiveResize=0;strokeColor=inherit;fillColor=#FFFFFF;align=left;whiteSpace=wrap;html=1;" parent="FPtvT3ox4dakqYe4pcGO-58" vertex="1">
          <mxGeometry x="106" width="332" height="225" as="geometry">
            <mxRectangle width="332" height="225" as="alternateBounds" />
          </mxGeometry>
        </mxCell>
        <mxCell id="FPtvT3ox4dakqYe4pcGO-60" value="&lt;font style=&quot;font-size: 30px;&quot;&gt;2022.09.02&lt;/font&gt;" style="connectable=0;recursiveResize=0;strokeColor=inherit;fillColor=#FFFFFF;align=right;whiteSpace=wrap;html=1;" parent="FPtvT3ox4dakqYe4pcGO-58" vertex="1">
          <mxGeometry x="438" width="251" height="225" as="geometry">
            <mxRectangle width="251" height="225" as="alternateBounds" />
          </mxGeometry>
        </mxCell>
        <mxCell id="FPtvT3ox4dakqYe4pcGO-61" value="&lt;font style=&quot;font-size: 30px;&quot;&gt;34,567&lt;/font&gt;" style="connectable=0;recursiveResize=0;strokeColor=inherit;fillColor=#FFFFFF;align=right;whiteSpace=wrap;html=1;" parent="FPtvT3ox4dakqYe4pcGO-58" vertex="1">
          <mxGeometry x="689" width="221" height="225" as="geometry">
            <mxRectangle width="221" height="225" as="alternateBounds" />
          </mxGeometry>
        </mxCell>
        <mxCell id="FPtvT3ox4dakqYe4pcGO-62" value="" style="connectable=0;recursiveResize=0;strokeColor=inherit;fillColor=none;align=center;whiteSpace=wrap;html=1;" parent="FPtvT3ox4dakqYe4pcGO-58" vertex="1">
          <mxGeometry x="910" width="519" height="225" as="geometry">
            <mxRectangle width="519" height="225" as="alternateBounds" />
          </mxGeometry>
        </mxCell>
        <mxCell id="FPtvT3ox4dakqYe4pcGO-63" style="connectable=0;recursiveResize=0;strokeColor=inherit;fillColor=none;align=center;whiteSpace=wrap;html=1;" parent="FPtvT3ox4dakqYe4pcGO-58" vertex="1">
          <mxGeometry x="1429" width="380" height="225" as="geometry">
            <mxRectangle width="380" height="225" as="alternateBounds" />
          </mxGeometry>
        </mxCell>
        <mxCell id="FPtvT3ox4dakqYe4pcGO-64" style="connectable=0;recursiveResize=0;strokeColor=inherit;fillColor=none;align=center;whiteSpace=wrap;html=1;" parent="FPtvT3ox4dakqYe4pcGO-58" vertex="1">
          <mxGeometry x="1809" width="370" height="225" as="geometry">
            <mxRectangle width="370" height="225" as="alternateBounds" />
          </mxGeometry>
        </mxCell>
        <mxCell id="FPtvT3ox4dakqYe4pcGO-70" value="" style="connectable=0;recursiveResize=0;strokeColor=inherit;fillColor=none;align=center;whiteSpace=wrap;html=1;" parent="FPtvT3ox4dakqYe4pcGO-58" vertex="1">
          <mxGeometry x="2179" width="440" height="225" as="geometry">
            <mxRectangle width="440" height="225" as="alternateBounds" />
          </mxGeometry>
        </mxCell>
        <mxCell id="FPtvT3ox4dakqYe4pcGO-76" value="&lt;div style=&quot;&quot;&gt;&lt;font style=&quot;font-size: 30px;&quot;&gt;▼ (7)&lt;/font&gt;&lt;font style=&quot;font-size: 30px;&quot;&gt;寄付の内訳&lt;/font&gt;&lt;/div&gt;" style="rounded=0;whiteSpace=wrap;html=1;align=left;" parent="cFaB45KztUIKXS-_cTrr-14" vertex="1">
          <mxGeometry x="1480" y="860" width="347" height="48" as="geometry" />
        </mxCell>
        <mxCell id="FPtvT3ox4dakqYe4pcGO-77" value="&lt;div style=&quot;&quot;&gt;&lt;font style=&quot;font-size: 30px;&quot;&gt;▼ 2.法人&lt;/font&gt;&lt;/div&gt;" style="rounded=0;whiteSpace=wrap;html=1;align=left;" parent="cFaB45KztUIKXS-_cTrr-14" vertex="1">
          <mxGeometry x="1480" y="918" width="346" height="48" as="geometry" />
        </mxCell>
        <mxCell id="FPtvT3ox4dakqYe4pcGO-81" value="&lt;div style=&quot;&quot;&gt;&lt;font style=&quot;font-size: 30px;&quot;&gt;▼ (12)&lt;/font&gt;&lt;font style=&quot;font-size: 30px;&quot;&gt;パーティあっせん&lt;/font&gt;&lt;/div&gt;" style="rounded=0;whiteSpace=wrap;html=1;align=left;" parent="cFaB45KztUIKXS-_cTrr-14" vertex="1">
          <mxGeometry x="1480" y="1100" width="347" height="48" as="geometry" />
        </mxCell>
        <mxCell id="FPtvT3ox4dakqYe4pcGO-82" value="&lt;div style=&quot;&quot;&gt;&lt;font style=&quot;font-size: 30px;&quot;&gt;▼ 3.政治団体&lt;/font&gt;&lt;/div&gt;" style="rounded=0;whiteSpace=wrap;html=1;align=left;" parent="cFaB45KztUIKXS-_cTrr-14" vertex="1">
          <mxGeometry x="1480" y="1158" width="346" height="48" as="geometry" />
        </mxCell>
        <mxCell id="FPtvT3ox4dakqYe4pcGO-83" value="&lt;div style=&quot;&quot;&gt;&lt;br&gt;&lt;/div&gt;" style="rounded=0;whiteSpace=wrap;html=1;align=left;verticalAlign=top;fillColor=#FFFFFF;" parent="cFaB45KztUIKXS-_cTrr-14" vertex="1">
          <mxGeometry x="2224" y="851" width="378" height="48" as="geometry" />
        </mxCell>
        <mxCell id="FPtvT3ox4dakqYe4pcGO-87" value="&lt;font style=&quot;font-size: 84px;&quot;&gt;○&lt;/font&gt;" style="text;html=1;strokeColor=none;fillColor=none;align=center;verticalAlign=middle;whiteSpace=wrap;rounded=0;fontSize=60;" parent="cFaB45KztUIKXS-_cTrr-14" vertex="1">
          <mxGeometry x="940" y="835" width="60" height="30" as="geometry" />
        </mxCell>
        <mxCell id="FPtvT3ox4dakqYe4pcGO-88" value="&lt;font style=&quot;font-size: 48px;&quot;&gt;●&lt;/font&gt;" style="text;html=1;strokeColor=none;fillColor=none;align=center;verticalAlign=middle;whiteSpace=wrap;rounded=0;fontSize=48;" parent="cFaB45KztUIKXS-_cTrr-14" vertex="1">
          <mxGeometry x="940" y="836" width="60" height="30" as="geometry" />
        </mxCell>
        <mxCell id="FPtvT3ox4dakqYe4pcGO-89" value="&lt;font style=&quot;font-size: 84px;&quot;&gt;○&lt;/font&gt;" style="text;html=1;strokeColor=none;fillColor=none;align=center;verticalAlign=middle;whiteSpace=wrap;rounded=0;fontSize=60;" parent="cFaB45KztUIKXS-_cTrr-14" vertex="1">
          <mxGeometry x="940" y="936" width="60" height="30" as="geometry" />
        </mxCell>
        <mxCell id="FPtvT3ox4dakqYe4pcGO-90" value="&lt;font style=&quot;font-size: 84px;&quot;&gt;○&lt;/font&gt;" style="text;html=1;strokeColor=none;fillColor=none;align=center;verticalAlign=middle;whiteSpace=wrap;rounded=0;fontSize=60;" parent="cFaB45KztUIKXS-_cTrr-14" vertex="1">
          <mxGeometry x="940" y="986" width="60" height="30" as="geometry" />
        </mxCell>
        <mxCell id="FPtvT3ox4dakqYe4pcGO-91" value="&lt;span style=&quot;font-size: 30px;&quot;&gt;報告対象&lt;/span&gt;" style="rounded=0;whiteSpace=wrap;html=1;align=left;dashed=1;dashPattern=8 8;verticalAlign=bottom;" parent="cFaB45KztUIKXS-_cTrr-14" vertex="1">
          <mxGeometry x="1004" y="826" width="200" height="46" as="geometry" />
        </mxCell>
        <mxCell id="FPtvT3ox4dakqYe4pcGO-92" value="&lt;span style=&quot;font-size: 30px;&quot;&gt;報告対象外(生活費)&lt;/span&gt;" style="rounded=0;whiteSpace=wrap;html=1;align=left;dashed=1;dashPattern=8 8;verticalAlign=bottom;" parent="cFaB45KztUIKXS-_cTrr-14" vertex="1">
          <mxGeometry x="1004" y="927" width="290" height="46" as="geometry" />
        </mxCell>
        <mxCell id="FPtvT3ox4dakqYe4pcGO-93" value="&lt;span style=&quot;font-size: 30px;&quot;&gt;報告対象外政治関連(廃止予定)&lt;/span&gt;" style="rounded=0;whiteSpace=wrap;html=1;align=left;dashed=1;dashPattern=8 8;verticalAlign=bottom;" parent="cFaB45KztUIKXS-_cTrr-14" vertex="1">
          <mxGeometry x="1004" y="976" width="440" height="46" as="geometry" />
        </mxCell>
        <mxCell id="FPtvT3ox4dakqYe4pcGO-94" value="&lt;font style=&quot;font-size: 84px;&quot;&gt;○&lt;/font&gt;" style="text;html=1;strokeColor=none;fillColor=none;align=center;verticalAlign=middle;whiteSpace=wrap;rounded=0;fontSize=60;" parent="cFaB45KztUIKXS-_cTrr-14" vertex="1">
          <mxGeometry x="940" y="1045" width="60" height="30" as="geometry" />
        </mxCell>
        <mxCell id="FPtvT3ox4dakqYe4pcGO-95" value="&lt;font style=&quot;font-size: 48px;&quot;&gt;●&lt;/font&gt;" style="text;html=1;strokeColor=none;fillColor=none;align=center;verticalAlign=middle;whiteSpace=wrap;rounded=0;fontSize=48;" parent="cFaB45KztUIKXS-_cTrr-14" vertex="1">
          <mxGeometry x="940" y="1046" width="60" height="30" as="geometry" />
        </mxCell>
        <mxCell id="FPtvT3ox4dakqYe4pcGO-96" value="&lt;font style=&quot;font-size: 84px;&quot;&gt;○&lt;/font&gt;" style="text;html=1;strokeColor=none;fillColor=none;align=center;verticalAlign=middle;whiteSpace=wrap;rounded=0;fontSize=60;" parent="cFaB45KztUIKXS-_cTrr-14" vertex="1">
          <mxGeometry x="940" y="1203" width="60" height="30" as="geometry" />
        </mxCell>
        <mxCell id="FPtvT3ox4dakqYe4pcGO-97" value="&lt;font style=&quot;font-size: 84px;&quot;&gt;○&lt;/font&gt;" style="text;html=1;strokeColor=none;fillColor=none;align=center;verticalAlign=middle;whiteSpace=wrap;rounded=0;fontSize=60;" parent="cFaB45KztUIKXS-_cTrr-14" vertex="1">
          <mxGeometry x="940" y="1146" width="60" height="30" as="geometry" />
        </mxCell>
        <mxCell id="FPtvT3ox4dakqYe4pcGO-98" value="&lt;span style=&quot;font-size: 30px;&quot;&gt;報告対象&lt;/span&gt;" style="rounded=0;whiteSpace=wrap;html=1;align=left;dashed=1;dashPattern=8 8;verticalAlign=bottom;" parent="cFaB45KztUIKXS-_cTrr-14" vertex="1">
          <mxGeometry x="1004" y="1036" width="200" height="46" as="geometry" />
        </mxCell>
        <mxCell id="FPtvT3ox4dakqYe4pcGO-99" value="&lt;span style=&quot;font-size: 30px;&quot;&gt;報告対象外(生活費)&lt;/span&gt;" style="rounded=0;whiteSpace=wrap;html=1;align=left;dashed=1;dashPattern=8 8;verticalAlign=bottom;" parent="cFaB45KztUIKXS-_cTrr-14" vertex="1">
          <mxGeometry x="1004" y="1136" width="290" height="46" as="geometry" />
        </mxCell>
        <mxCell id="FPtvT3ox4dakqYe4pcGO-100" value="&lt;span style=&quot;font-size: 30px;&quot;&gt;報告対象外政治関連(廃止予定)&lt;/span&gt;" style="rounded=0;whiteSpace=wrap;html=1;align=left;dashed=1;dashPattern=8 8;verticalAlign=bottom;" parent="cFaB45KztUIKXS-_cTrr-14" vertex="1">
          <mxGeometry x="1001" y="1196" width="440" height="46" as="geometry" />
        </mxCell>
        <mxCell id="FPtvT3ox4dakqYe4pcGO-101" value="&lt;span style=&quot;font-size: 30px;&quot;&gt;寄付者の…&lt;/span&gt;" style="rounded=0;whiteSpace=wrap;html=1;align=left;dashed=1;dashPattern=8 8;verticalAlign=bottom;" parent="cFaB45KztUIKXS-_cTrr-14" vertex="1">
          <mxGeometry x="1874" y="856" width="200" height="46" as="geometry" />
        </mxCell>
        <mxCell id="FPtvT3ox4dakqYe4pcGO-102" value="&lt;span style=&quot;font-size: 30px;&quot;&gt;寄付者の…&lt;/span&gt;" style="rounded=0;whiteSpace=wrap;html=1;align=left;dashed=1;dashPattern=8 8;verticalAlign=bottom;" parent="cFaB45KztUIKXS-_cTrr-14" vertex="1">
          <mxGeometry x="1864" y="1096" width="200" height="46" as="geometry" />
        </mxCell>
        <mxCell id="FPtvT3ox4dakqYe4pcGO-103" value="&lt;div style=&quot;&quot;&gt;&lt;div style=&quot;font-family: &amp;quot;MS GothIc&amp;quot;, Consolas, &amp;quot;Courier New&amp;quot;, monospace, Consolas, &amp;quot;Courier New&amp;quot;, monospace; line-height: 19px;&quot;&gt;&lt;font style=&quot;font-size: 30px;&quot;&gt;摘要&lt;/font&gt;&lt;/div&gt;&lt;/div&gt;" style="rounded=0;whiteSpace=wrap;html=1;align=left;fillColor=#FFFFFF;" parent="cFaB45KztUIKXS-_cTrr-14" vertex="1">
          <mxGeometry x="1873" y="921" width="291" height="48" as="geometry" />
        </mxCell>
        <mxCell id="FPtvT3ox4dakqYe4pcGO-104" value="&lt;div style=&quot;&quot;&gt;&lt;div style=&quot;font-family: &amp;quot;MS GothIc&amp;quot;, Consolas, &amp;quot;Courier New&amp;quot;, monospace, Consolas, &amp;quot;Courier New&amp;quot;, monospace; line-height: 19px;&quot;&gt;&lt;font style=&quot;font-size: 30px;&quot;&gt;摘要&lt;/font&gt;&lt;/div&gt;&lt;/div&gt;" style="rounded=0;whiteSpace=wrap;html=1;align=left;" parent="cFaB45KztUIKXS-_cTrr-14" vertex="1">
          <mxGeometry x="1863" y="1161" width="291" height="48" as="geometry" />
        </mxCell>
        <mxCell id="FPtvT3ox4dakqYe4pcGO-120" value="&lt;font style=&quot;font-size: 84px;&quot;&gt;○&lt;/font&gt;" style="text;html=1;strokeColor=none;fillColor=none;align=center;verticalAlign=middle;whiteSpace=wrap;rounded=0;fontSize=60;" parent="cFaB45KztUIKXS-_cTrr-14" vertex="1">
          <mxGeometry x="940" y="884" width="60" height="30" as="geometry" />
        </mxCell>
        <mxCell id="FPtvT3ox4dakqYe4pcGO-121" value="&lt;span style=&quot;font-size: 30px;&quot;&gt;タスク計上&lt;/span&gt;" style="rounded=0;whiteSpace=wrap;html=1;align=left;dashed=1;dashPattern=8 8;verticalAlign=bottom;" parent="cFaB45KztUIKXS-_cTrr-14" vertex="1">
          <mxGeometry x="1004" y="875" width="290" height="46" as="geometry" />
        </mxCell>
        <mxCell id="FPtvT3ox4dakqYe4pcGO-122" value="&lt;font style=&quot;font-size: 84px;&quot;&gt;○&lt;/font&gt;" style="text;html=1;strokeColor=none;fillColor=none;align=center;verticalAlign=middle;whiteSpace=wrap;rounded=0;fontSize=60;" parent="cFaB45KztUIKXS-_cTrr-14" vertex="1">
          <mxGeometry x="941" y="1094" width="60" height="30" as="geometry" />
        </mxCell>
        <mxCell id="FPtvT3ox4dakqYe4pcGO-123" value="&lt;span style=&quot;font-size: 30px;&quot;&gt;タスク計上&lt;/span&gt;" style="rounded=0;whiteSpace=wrap;html=1;align=left;dashed=1;dashPattern=8 8;verticalAlign=bottom;" parent="cFaB45KztUIKXS-_cTrr-14" vertex="1">
          <mxGeometry x="1005" y="1085" width="290" height="46" as="geometry" />
        </mxCell>
        <mxCell id="FPtvT3ox4dakqYe4pcGO-127" value="&lt;span style=&quot;font-size: 30px;&quot;&gt;検索&lt;/span&gt;" style="rounded=1;whiteSpace=wrap;html=1;" parent="cFaB45KztUIKXS-_cTrr-14" vertex="1">
          <mxGeometry x="1319" y="596" width="210" height="51" as="geometry" />
        </mxCell>
        <mxCell id="FPtvT3ox4dakqYe4pcGO-128" value="&lt;font style=&quot;font-size: 84px;&quot;&gt;○&lt;/font&gt;" style="text;html=1;strokeColor=none;fillColor=none;align=center;verticalAlign=middle;whiteSpace=wrap;rounded=0;fontSize=60;" parent="cFaB45KztUIKXS-_cTrr-14" vertex="1">
          <mxGeometry x="854" y="387" width="60" height="30" as="geometry" />
        </mxCell>
        <mxCell id="FPtvT3ox4dakqYe4pcGO-130" value="&lt;font style=&quot;font-size: 84px;&quot;&gt;○&lt;/font&gt;" style="text;html=1;strokeColor=none;fillColor=none;align=center;verticalAlign=middle;whiteSpace=wrap;rounded=0;fontSize=60;" parent="cFaB45KztUIKXS-_cTrr-14" vertex="1">
          <mxGeometry x="1224" y="386" width="60" height="30" as="geometry" />
        </mxCell>
        <mxCell id="FPtvT3ox4dakqYe4pcGO-131" value="&lt;font style=&quot;font-size: 30px;&quot;&gt;政治活費(報告対象外)&lt;/font&gt;" style="text;html=1;strokeColor=none;fillColor=none;align=left;verticalAlign=middle;whiteSpace=wrap;rounded=0;" parent="cFaB45KztUIKXS-_cTrr-14" vertex="1">
          <mxGeometry x="907" y="377" width="313" height="60" as="geometry" />
        </mxCell>
        <mxCell id="FPtvT3ox4dakqYe4pcGO-132" value="&lt;font style=&quot;font-size: 30px;&quot;&gt;タスク計上&lt;/font&gt;" style="text;html=1;strokeColor=none;fillColor=none;align=left;verticalAlign=middle;whiteSpace=wrap;rounded=0;" parent="cFaB45KztUIKXS-_cTrr-14" vertex="1">
          <mxGeometry x="1287" y="377" width="193" height="60" as="geometry" />
        </mxCell>
        <mxCell id="rfn0SntSckL0OTr6p3Q9-4" value="&lt;font style=&quot;font-size: 84px;&quot;&gt;○&lt;/font&gt;" style="text;html=1;strokeColor=none;fillColor=none;align=center;verticalAlign=middle;whiteSpace=wrap;rounded=0;fontSize=60;" vertex="1" parent="cFaB45KztUIKXS-_cTrr-14">
          <mxGeometry x="60" y="906" width="60" height="30" as="geometry" />
        </mxCell>
        <mxCell id="rfn0SntSckL0OTr6p3Q9-5" value="&lt;font style=&quot;font-size: 48px;&quot;&gt;●&lt;/font&gt;" style="text;html=1;strokeColor=none;fillColor=none;align=center;verticalAlign=middle;whiteSpace=wrap;rounded=0;fontSize=48;" vertex="1" parent="cFaB45KztUIKXS-_cTrr-14">
          <mxGeometry x="60" y="907" width="60" height="30" as="geometry" />
        </mxCell>
        <mxCell id="rfn0SntSckL0OTr6p3Q9-6" value="&lt;font style=&quot;font-size: 84px;&quot;&gt;○&lt;/font&gt;" style="text;html=1;strokeColor=none;fillColor=none;align=center;verticalAlign=middle;whiteSpace=wrap;rounded=0;fontSize=60;" vertex="1" parent="cFaB45KztUIKXS-_cTrr-14">
          <mxGeometry x="50" y="1126" width="60" height="30" as="geometry" />
        </mxCell>
      </root>
    </mxGraphModel>
  </diagram>
</mxfile>
